<?xml version="1.0" standalone="no"?>
<!DOCTYPE svg PUBLIC "-//W3C//DTD SVG 20010904//EN"
 "http://www.w3.org/TR/2001/REC-SVG-20010904/DTD/svg10.dtd">
<svg version="1.0" xmlns="http://www.w3.org/2000/svg"
 width="500.000000pt" height="500.000000pt" viewBox="0 0 500.000000 500.000000"
 preserveAspectRatio="xMidYMid meet">

<g transform="translate(0.000000,500.000000) scale(0.100000,-0.100000)"
fill="#000000" stroke="none">
<path d="M2480 4351 c-115 -35 -191 -144 -226 -324 -20 -102 -2 -91 -189 -108
-71 -6 -138 -15 -147 -20 -18 -10 -33 -49 -26 -69 4 -14 -49 -73 -74 -83 -24
-9 -24 -11 -52 -357 -14 -168 -42 -478 -63 -688 -37 -381 -37 -384 -18 -399
12 -9 31 -12 49 -9 21 5 36 0 58 -19 34 -29 46 -31 75 -10 19 14 21 13 26 -14
4 -16 14 -32 25 -35 10 -3 146 5 303 19 156 13 446 36 644 50 198 14 370 27
382 30 12 3 28 15 34 28 6 12 21 30 33 39 l21 17 -28 221 c-60 481 -158 1226
-162 1237 -2 6 -16 19 -30 29 -21 14 -30 15 -52 5 -33 -15 -37 37 72 -800 47
-365 85 -665 83 -666 -2 -2 -167 -15 -368 -30 -201 -14 -483 -36 -627 -48
l-263 -23 0 266 c1 146 5 463 9 705 7 353 6 446 -4 471 l-13 31 112 12 c174
17 166 19 166 -33 0 -24 3 -51 6 -59 4 -12 -7 -19 -43 -29 -37 -11 -50 -20
-57 -40 -12 -35 15 -68 56 -68 44 0 121 21 141 38 17 15 23 53 10 66 -11 11
-3 140 9 147 11 7 368 33 372 28 2 -2 6 -34 9 -70 6 -63 5 -67 -13 -62 -34 9
-69 -6 -76 -31 -10 -40 11 -63 78 -85 82 -28 104 -27 125 5 16 24 16 29 1 54
-10 17 -12 33 -7 41 5 8 6 46 3 85 l-6 71 88 7 c109 9 124 16 124 60 0 53 -16
59 -124 51 l-95 -7 -6 39 c-29 184 -82 284 -170 324 -41 19 -128 24 -175 10z
m126 -117 c18 -9 43 -31 54 -49 18 -29 60 -169 60 -200 0 -8 -52 -15 -167 -24
-93 -6 -176 -11 -186 -11 -16 0 -17 6 -11 48 26 181 140 288 250 236z m-749
-1176 c-3 -8 -6 -5 -6 6 -1 11 2 17 5 13 3 -3 4 -12 1 -19z m-14 -669 c-5 -4
-19 0 -32 10 l-23 18 28 304 29 304 3 -314 c1 -173 -1 -318 -5 -322z"/>
<path d="M2858 3129 c-16 -9 -148 -394 -148 -431 0 -21 33 -48 57 -48 11 0 27
8 35 18 13 13 72 184 142 409 5 15 1 28 -13 42 -23 23 -46 26 -73 10z"/>
<path d="M2973 2975 c-15 -10 -24 -30 -28 -63 -4 -26 -16 -91 -26 -146 -19
-93 -19 -100 -3 -117 20 -22 67 -25 83 -5 11 14 42 160 56 262 5 40 3 55 -10
68 -20 20 -44 20 -72 1z"/>
<path d="M420 1435 l0 -335 143 0 c160 0 207 9 237 47 19 24 20 39 20 289 0
258 0 263 -22 289 -31 36 -79 44 -240 45 l-138 0 0 -335z m241 225 c18 -10 19
-23 19 -225 0 -206 -1 -215 -20 -225 -12 -6 -38 -10 -58 -8 l-37 3 -3 220 c-1
121 0 225 2 232 6 16 70 17 97 3z"/>
<path d="M1047 1763 c-7 -11 -147 -631 -147 -649 0 -11 16 -14 69 -14 l70 0
12 60 12 60 77 0 78 0 7 -42 c12 -81 10 -78 84 -78 37 0 70 2 73 5 2 3 -30
152 -72 332 l-76 328 -91 3 c-50 1 -94 -1 -96 -5z m120 -286 c31 -157 33 -147
-30 -147 l-53 0 25 134 c14 74 28 132 31 130 2 -3 14 -55 27 -117z"/>
<path d="M1460 1435 l0 -335 65 0 65 0 0 217 c0 119 2 214 6 211 3 -3 22 -66
42 -139 l37 -134 57 -3 56 -3 15 53 c9 29 26 89 38 133 12 44 26 84 29 88 4 5
7 -18 7 -50 0 -32 1 -129 2 -216 l1 -158 63 3 62 3 0 330 0 330 -80 3 -81 3
-53 -186 c-30 -102 -56 -183 -59 -180 -3 3 -29 85 -57 183 l-51 177 -82 3 -82
3 0 -336z"/>
<path d="M2120 1435 l0 -336 68 3 67 3 5 188 5 188 69 -191 69 -190 64 0 63 0
0 335 0 335 -65 0 -65 0 -1 -197 c-1 -143 -4 -191 -11 -173 -6 14 -38 102 -72
195 l-61 170 -67 3 -68 3 0 -336z"/>
<path d="M2717 1755 c-46 -16 -66 -40 -67 -80 -5 -249 1 -507 12 -524 22 -35
66 -46 188 -46 127 0 162 12 180 61 6 14 10 86 10 160 l0 134 -100 0 -100 0 0
-50 c0 -47 2 -50 25 -50 24 0 25 -2 25 -75 0 -72 -1 -75 -26 -81 -14 -4 -36
-2 -50 5 l-24 11 0 215 0 215 24 11 c14 7 36 9 50 5 22 -5 25 -12 28 -59 l3
-52 73 -3 72 -3 0 75 c0 89 -20 121 -85 136 -59 14 -194 11 -238 -5z"/>
<path d="M3245 1764 c-102 -25 -105 -35 -105 -329 0 -266 5 -292 61 -316 45
-18 242 -19 285 -1 56 24 59 40 59 317 0 273 -3 291 -54 316 -26 12 -208 22
-246 13z m143 -116 c9 -9 12 -70 12 -214 0 -225 -1 -228 -67 -222 l-38 3 -3
210 c-1 115 0 215 2 222 7 16 78 17 94 1z"/>
<path d="M3727 1756 c-75 -28 -80 -49 -75 -357 3 -245 6 -257 63 -281 48 -21
252 -17 292 5 47 25 53 62 53 312 0 250 -6 287 -53 312 -44 23 -226 29 -280 9z
m178 -321 l0 -220 -29 -3 c-15 -2 -39 -1 -52 2 l-24 6 0 208 c0 153 3 211 12
220 7 7 30 12 53 10 l40 -3 0 -220z"/>
<path d="M4180 1435 l0 -335 143 0 c160 0 207 9 237 47 19 24 20 39 20 288 0
249 -1 264 -20 288 -30 38 -77 47 -237 47 l-143 0 0 -335z m241 225 c18 -10
19 -23 19 -225 0 -206 -1 -215 -20 -225 -12 -6 -38 -10 -58 -8 l-37 3 -3 220
c-1 121 0 225 2 232 6 16 70 17 97 3z"/>
<path d="M2430 800 c0 -82 3 -100 15 -100 10 0 15 11 16 30 3 73 4 75 27 78
21 3 22 0 22 -52 0 -49 2 -56 20 -56 18 0 20 7 20 59 0 68 -14 87 -60 77 -29
-5 -30 -4 -30 29 0 24 -5 35 -15 35 -12 0 -15 -18 -15 -100z"/>
<path d="M3210 800 c0 -93 1 -100 20 -100 19 0 20 7 20 100 0 93 -1 100 -20
100 -19 0 -20 -7 -20 -100z"/>
<path d="M1590 886 c0 -3 9 -46 21 -96 19 -82 23 -91 42 -88 17 2 24 14 33 56
7 30 15 56 17 59 3 3 11 -22 18 -56 10 -53 15 -61 34 -61 20 0 24 9 42 93 16
77 17 93 5 95 -19 5 -20 3 -35 -69 l-14 -64 -13 57 c-7 31 -16 62 -20 69 -16
25 -37 -1 -50 -63 l-14 -63 -14 68 c-12 53 -19 67 -34 67 -10 0 -18 -2 -18 -4z"/>
<path d="M2340 860 c0 -11 -4 -20 -10 -20 -5 0 -10 -7 -10 -15 0 -8 4 -15 9
-15 6 0 11 -24 13 -52 3 -49 5 -53 31 -56 29 -4 39 21 12 32 -9 3 -15 19 -15
41 0 24 4 35 15 35 8 0 15 6 15 14 0 8 -7 16 -15 20 -8 3 -15 12 -15 21 0 8
-7 15 -15 15 -8 0 -15 -9 -15 -20z"/>
<path d="M2970 860 c0 -11 -4 -20 -10 -20 -5 0 -10 -7 -10 -15 0 -8 5 -15 10
-15 6 0 10 -19 10 -42 0 -24 4 -48 8 -54 11 -17 37 -23 53 -13 12 8 11 12 -3
23 -19 14 -26 86 -8 86 6 0 10 7 10 15 0 8 -4 15 -10 15 -5 0 -10 9 -10 20 0
13 -7 20 -20 20 -13 0 -20 -7 -20 -20z"/>
<path d="M1857 822 c-21 -23 -22 -86 -1 -106 30 -31 119 -19 100 13 -5 7 -13
8 -24 2 -11 -6 -24 -6 -35 0 -30 17 -18 29 29 29 45 0 46 0 39 27 -4 16 -11
34 -17 40 -16 19 -72 16 -91 -5z m71 -29 c2 -8 -6 -13 -22 -13 -17 0 -26 5
-26 16 0 19 41 16 48 -3z"/>
<path d="M2004 823 c-17 -17 -17 -18 0 -21 9 -2 23 2 31 8 16 14 35 5 35 -16
0 -9 -10 -14 -28 -14 -32 0 -52 -16 -52 -41 0 -21 39 -51 53 -42 6 3 24 6 41
5 l31 -1 -3 57 c-2 31 -9 63 -14 70 -15 18 -74 15 -94 -5z m70 -72 c8 -12 -21
-34 -34 -26 -17 11 -11 35 9 35 11 0 22 -4 25 -9z"/>
<path d="M2150 769 c0 -62 2 -69 20 -69 17 0 20 7 20 51 0 42 3 52 20 56 36
10 23 30 -20 30 l-40 0 0 -68z"/>
<path d="M2614 832 c-45 -30 -39 -106 9 -127 42 -18 105 4 81 28 -3 3 -16 2
-28 -3 -23 -8 -56 4 -56 20 0 6 20 10 45 10 39 0 45 3 45 21 0 38 -19 59 -53
59 -18 0 -37 -4 -43 -8z m64 -39 c2 -9 -7 -13 -27 -13 -30 0 -39 9 -24 24 11
10 46 3 51 -11z"/>
<path d="M2833 833 c-7 -2 -13 -17 -13 -32 0 -24 7 -31 42 -44 33 -14 39 -20
30 -29 -10 -10 -17 -10 -32 0 -23 14 -50 16 -50 3 0 -19 30 -32 66 -29 68 6
73 63 6 80 -18 5 -32 13 -32 18 0 15 21 23 33 11 13 -13 47 -15 47 -3 0 26
-59 41 -97 25z"/>
<path d="M3055 823 c26 -64 45 -129 41 -140 -3 -7 -12 -13 -21 -13 -8 0 -15
-7 -15 -15 0 -16 27 -20 47 -7 10 6 73 167 73 186 0 3 -8 6 -18 6 -13 0 -23
-13 -32 -42 l-13 -43 -14 43 c-11 31 -20 42 -35 42 -15 0 -18 -4 -13 -17z"/>
<path d="M3296 818 c-32 -45 -11 -111 37 -120 32 -6 67 8 67 27 0 17 -9 19
-29 6 -9 -6 -22 -6 -33 0 -31 17 -20 29 27 29 41 0 45 2 45 23 0 54 -84 79
-114 35z m74 -23 c0 -9 -9 -15 -25 -15 -24 0 -32 10 -18 23 12 13 43 7 43 -8z"/>
</g>
</svg>
